<?xml version="1.0" standalone="no"?>
<!DOCTYPE svg PUBLIC "-//W3C//DTD SVG 20010904//EN"
 "http://www.w3.org/TR/2001/REC-SVG-20010904/DTD/svg10.dtd">
<svg version="1.0" xmlns="http://www.w3.org/2000/svg"
 width="64.000000pt" height="64.000000pt" viewBox="0 0 64.000000 64.000000"
 preserveAspectRatio="xMidYMid meet">
<metadata>
Created by potrace 1.16, written by Peter Selinger 2001-2019
</metadata>
<g transform="translate(0.000000,64.000000) scale(0.006639,-0.007207)"
fill="#000000" stroke="none">
<path d="M6214 8862 c2 -4 -11 -6 -31 -4 -22 3 -33 1 -30 -5 4 -6 -4 -8 -20
-5 -19 4 -24 2 -18 -8 5 -8 4 -11 -3 -6 -16 10 -63 -4 -55 -17 3 -5 1 -7 -4
-4 -14 9 -74 -13 -67 -24 3 -5 -3 -6 -12 -2 -13 5 -15 3 -9 -7 5 -9 4 -11 -3
-6 -6 4 -22 2 -34 -5 -28 -14 -82 -59 -73 -59 4 0 2 -7 -5 -15 -7 -8 -17 -12
-23 -8 -5 3 -7 1 -4 -4 4 -6 0 -14 -9 -17 -8 -3 -13 -10 -10 -14 3 -5 -2 -18
-10 -28 -9 -10 -12 -13 -8 -5 5 10 3 12 -5 7 -19 -12 -80 -148 -88 -195 -2
-14 -8 -32 -12 -40 -30 -61 10 -341 75 -521 25 -70 114 -235 191 -353 43 -65
43 -68 32 -110 -6 -23 -13 -53 -15 -67 -6 -38 -17 -93 -21 -110 -3 -8 -4 -25
-4 -37 1 -14 -5 -23 -15 -23 -8 0 -12 5 -9 10 3 6 -3 10 -14 10 -12 0 -21 5
-21 11 0 5 -13 15 -30 20 -16 6 -27 15 -24 20 3 5 -4 9 -16 9 -12 0 -19 4 -15
9 3 5 -5 12 -17 16 -52 15 -77 28 -71 38 4 6 1 7 -7 2 -7 -4 -15 -3 -19 2 -9
15 -108 63 -114 56 -3 -3 -13 2 -22 11 -16 15 -35 20 -64 17 -7 -2 -10 2 -6 8
6 10 -13 16 -42 12 -7 -1 -13 2 -13 8 0 13 -127 54 -141 45 -8 -5 -9 -3 -4 6
6 10 3 12 -13 8 -14 -4 -20 -2 -16 4 4 6 -1 8 -15 3 -13 -4 -21 -2 -21 5 0 6
-10 8 -26 4 -21 -5 -25 -4 -19 6 6 10 2 11 -19 6 -15 -4 -25 -3 -22 2 7 11
-116 34 -138 26 -9 -4 -16 -1 -16 6 0 9 -11 11 -35 7 -22 -4 -35 -2 -35 5 0 7
-17 9 -45 6 -24 -3 -42 -2 -39 3 3 5 -54 9 -126 9 -97 0 -129 -3 -124 -12 5
-7 3 -8 -5 -3 -15 9 -191 -24 -191 -36 0 -5 -3 -8 -7 -7 -15 4 -53 -14 -48
-22 3 -4 -5 -6 -17 -2 -13 3 -19 1 -15 -5 5 -7 0 -9 -13 -6 -11 3 -20 1 -20
-5 0 -6 -10 -8 -22 -4 -11 3 -19 1 -16 -4 4 -5 -7 -10 -24 -10 -17 -1 -33 -5
-37 -10 -3 -5 -12 -9 -18 -10 -40 -3 -44 -5 -37 -16 4 -6 3 -8 -4 -5 -15 10
-43 -3 -35 -16 3 -5 1 -7 -5 -3 -14 9 -83 -25 -75 -37 3 -6 1 -7 -6 -3 -13 8
-81 -30 -81 -45 0 -6 -5 -7 -10 -4 -6 3 -13 0 -16 -8 -2 -7 -11 -14 -18 -14
-18 0 -106 -60 -135 -92 -13 -14 -20 -19 -15 -11 11 20 -90 -65 -115 -96 -10
-13 -24 -24 -30 -24 -6 0 -10 -6 -9 -12 2 -7 -3 -12 -10 -10 -6 1 -11 -2 -10
-7 2 -5 -31 -41 -72 -81 -41 -40 -64 -64 -50 -54 19 14 17 10 -7 -17 -56 -59
-39 -129 30 -129 43 1 62 14 132 90 59 63 181 183 214 208 82 64 214 147 321
202 52 26 186 70 317 105 50 13 102 29 115 36 58 31 317 21 531 -22 94 -19
311 -84 332 -99 6 -4 36 -17 67 -28 98 -37 250 -113 315 -159 17 -13 34 -23
38 -23 31 0 264 -284 325 -395 12 -22 31 -56 42 -75 55 -93 140 -275 168 -360
45 -132 55 -174 80 -339 24 -155 22 -304 -5 -386 -8 -22 -20 -65 -28 -95 -24
-90 -95 -288 -132 -366 -49 -108 -133 -231 -212 -313 -38 -39 -72 -71 -77 -71
-5 0 -14 -6 -20 -14 -13 -16 -294 -226 -302 -226 -3 0 -20 -10 -37 -22 -52
-37 -87 -53 -182 -82 -165 -50 -185 -64 -185 -123 1 -73 49 -80 213 -27 121
39 169 61 234 105 23 16 44 29 47 29 3 0 6 -66 6 -147 0 -95 7 -210 21 -319
l22 -171 -23 -59 c-13 -33 -29 -63 -35 -69 -6 -5 -35 -43 -65 -83 -43 -60 -53
-80 -53 -114 0 -49 28 -78 76 -78 24 0 42 13 92 65 34 36 66 65 71 65 6 0 19
8 30 18 10 9 39 33 64 52 25 19 50 40 55 46 15 17 131 96 179 121 53 28 131
53 169 53 57 0 138 -69 184 -157 6 -12 18 -35 27 -50 27 -49 82 -205 102 -288
14 -59 19 -118 19 -226 l0 -146 -89 -84 c-49 -46 -118 -112 -154 -146 -35 -35
-65 -63 -66 -63 -1 0 0 20 2 45 6 67 -15 200 -37 242 -44 85 -112 135 -241
179 -75 25 -247 25 -350 0 -74 -17 -260 -101 -260 -117 0 -4 -9 -10 -19 -14
-30 -9 -136 -124 -182 -196 l-42 -66 -101 61 c-183 112 -296 150 -441 150
-100 -1 -170 -23 -269 -86 -50 -33 -52 -33 -176 -34 -96 -1 -139 -6 -187 -22
l-63 -20 0 57 c0 31 -5 185 -11 341 -14 394 -39 504 -144 654 -66 93 -198 230
-297 307 -45 35 -93 75 -108 89 -14 14 -44 40 -66 59 -21 19 -140 132 -264
251 -124 120 -249 238 -277 263 -75 65 -398 397 -538 551 -44 49 -98 111 -140
161 -27 33 -74 85 -103 116 -28 31 -52 61 -52 67 0 7 -4 12 -10 12 -5 0 -10 6
-10 13 0 12 -13 33 -82 136 -10 14 -52 96 -94 181 l-77 155 -5 100 c-5 117 9
179 59 252 54 79 119 136 209 181 l85 43 109 -11 c96 -10 144 -24 166 -51 3
-3 30 -21 61 -40 121 -73 228 -167 308 -273 25 -32 67 -81 93 -109 27 -29 52
-63 55 -77 3 -14 24 -45 47 -70 45 -51 68 -78 129 -160 23 -30 44 -57 47 -60
3 -3 28 -34 55 -70 27 -36 81 -108 120 -160 74 -98 112 -153 250 -364 101
-154 197 -295 211 -310 6 -6 23 -29 37 -51 37 -57 240 -332 293 -398 8 -9 14
-20 14 -22 0 -9 54 -90 62 -93 4 -2 10 -18 14 -37 3 -18 21 -49 39 -69 56 -61
132 -48 149 25 12 52 -117 262 -259 423 -5 6 -26 34 -45 61 -19 28 -39 55 -45
62 -30 35 -35 43 -35 48 0 4 -28 43 -63 88 -35 45 -71 93 -80 107 -9 14 -39
57 -65 95 -27 39 -87 129 -135 200 -47 72 -91 137 -97 145 -81 121 -374 528
-408 568 -34 40 -25 93 37 216 64 125 113 212 129 228 7 7 12 16 12 20 0 5 25
42 55 82 30 40 55 76 55 79 0 4 -7 7 -16 7 -8 0 -12 4 -9 10 3 5 0 7 -9 4 -23
-9 -55 14 -69 48 -12 29 -13 29 -27 12 -13 -16 -13 -17 0 -10 8 4 5 -1 -7 -10
-13 -9 -23 -22 -23 -28 0 -6 -9 -17 -20 -24 -12 -7 -18 -17 -15 -21 2 -5 -2
-12 -11 -15 -8 -3 -13 -10 -9 -15 3 -6 -4 -15 -15 -21 -11 -6 -18 -15 -15 -21
4 -5 1 -9 -4 -9 -6 0 -11 -7 -11 -15 0 -8 -5 -15 -11 -15 -5 0 -7 -4 -4 -10 3
-5 2 -10 -3 -10 -6 0 -17 -17 -26 -37 -22 -51 -49 -97 -59 -101 -4 -2 -5 -8
-1 -13 3 -5 0 -9 -6 -9 -6 0 -8 -4 -5 -10 3 -5 1 -10 -5 -10 -6 0 -8 -4 -5
-10 3 -5 1 -10 -4 -10 -6 0 -11 -6 -11 -13 0 -7 -6 -21 -12 -30 -15 -19 -58
-13 -58 9 0 7 -11 21 -25 30 -14 9 -25 23 -25 30 0 8 -4 14 -10 14 -5 0 -7 7
-4 15 4 8 -1 17 -10 21 -9 3 -13 10 -10 16 3 5 -3 12 -15 15 -11 3 -18 9 -15
14 3 5 -2 9 -11 9 -9 0 -13 5 -10 10 3 6 1 10 -5 10 -6 0 -23 14 -37 30 -13
17 -31 30 -39 30 -8 0 -14 4 -14 10 0 5 -14 17 -30 25 -17 9 -28 20 -25 25 4
6 -3 10 -15 10 -11 0 -23 7 -26 15 -4 8 -13 15 -22 15 -8 0 -12 3 -9 7 9 8
-23 32 -43 33 -9 0 -22 9 -30 20 -8 11 -29 25 -47 31 -18 6 -31 14 -28 19 7
11 -71 41 -90 34 -8 -4 -15 -1 -15 6 0 8 -9 10 -26 6 -17 -5 -23 -3 -19 4 6
10 -13 14 -49 10 -11 -1 -15 3 -12 9 5 8 -15 11 -63 11 -39 0 -71 -4 -71 -9 0
-5 -10 -7 -22 -3 -16 4 -19 2 -13 -8 5 -8 4 -11 -3 -6 -16 10 -63 -4 -55 -17
3 -5 1 -7 -5 -3 -12 7 -62 -13 -62 -26 0 -5 -4 -7 -10 -3 -5 3 -18 -2 -28 -12
-10 -10 -25 -19 -33 -21 -8 -2 -22 -13 -32 -25 -10 -12 -15 -16 -11 -8 4 7 -7
3 -25 -10 -31 -23 -41 -36 -18 -24 6 4 -3 -5 -21 -20 -19 -15 -38 -39 -43 -52
-5 -15 -14 -21 -21 -17 -7 4 -8 3 -4 -5 4 -6 0 -14 -8 -17 -9 -3 -16 -12 -16
-20 0 -8 -4 -14 -10 -14 -5 0 -12 -11 -16 -24 -3 -14 -12 -27 -21 -30 -8 -3
-11 -10 -8 -16 3 -5 1 -10 -5 -10 -6 0 -8 -4 -5 -10 3 -5 1 -10 -6 -10 -7 0
-10 -3 -6 -6 3 -3 1 -17 -4 -31 -5 -14 -11 -40 -14 -57 -2 -17 -7 -56 -11 -86
-15 -113 3 -250 42 -320 7 -14 41 -85 74 -159 64 -145 206 -368 306 -482 258
-297 964 -1011 1219 -1234 44 -39 102 -90 130 -116 92 -83 260 -225 305 -258
55 -39 66 -59 86 -153 32 -151 44 -247 44 -361 0 -65 7 -166 15 -225 11 -71
15 -161 13 -266 l-3 -160 -27 -7 c-17 -4 -28 -3 -28 2 0 6 -5 7 -10 4 -6 -3
-17 1 -26 9 -9 9 -20 14 -25 10 -5 -3 -16 2 -25 10 -8 9 -23 17 -32 17 -9 1
-21 2 -27 4 -5 1 -16 3 -23 3 -7 1 -10 6 -7 12 3 6 -1 7 -9 4 -11 -4 -16 0
-16 10 0 9 5 16 10 16 6 0 10 16 10 35 0 19 -5 35 -11 35 -5 0 -7 5 -4 10 3 5
1 10 -5 10 -7 0 -10 7 -6 15 3 8 1 15 -5 15 -6 0 -7 5 -4 10 3 6 1 10 -4 10
-6 0 -11 5 -11 11 0 6 -11 20 -25 31 -14 11 -23 24 -20 29 6 9 -8 13 -34 10
-7 -2 -10 2 -6 9 5 9 1 10 -15 5 -15 -5 -20 -4 -16 4 5 7 -5 11 -29 11 -24 0
-34 -4 -29 -11 4 -8 -1 -9 -16 -4 -15 5 -20 4 -16 -4 4 -6 2 -9 -7 -6 -12 5
-68 -47 -66 -61 0 -4 -5 -10 -13 -15 -7 -5 -13 -13 -13 -19 0 -5 -4 -9 -10 -8
-5 2 -9 7 -7 11 1 4 -5 10 -13 13 -8 4 -15 12 -15 20 0 8 -5 14 -11 14 -5 0
-7 5 -4 10 3 6 1 10 -5 10 -6 0 -8 5 -5 10 3 6 1 10 -4 10 -6 0 -11 7 -11 15
0 8 -5 15 -11 15 -5 0 -7 5 -4 10 3 6 1 10 -5 10 -6 0 -8 5 -5 10 3 6 1 10 -5
10 -6 0 -8 5 -5 10 3 6 2 10 -3 10 -6 0 -13 11 -16 25 -4 14 -11 25 -17 25 -6
0 -7 5 -4 10 3 6 1 10 -5 10 -6 0 -8 5 -5 10 3 6 1 10 -4 10 -6 0 -11 7 -11
15 0 8 -5 15 -11 15 -5 0 -7 5 -4 10 3 6 1 10 -4 10 -6 0 -11 7 -11 15 0 9 -7
18 -15 21 -8 4 -15 12 -15 20 0 8 -4 14 -10 14 -5 0 -10 6 -10 14 0 8 -14 24
-30 36 -17 12 -28 25 -25 30 2 4 -9 10 -26 14 -17 3 -28 10 -24 16 10 16 -48
12 -73 -6 -12 -8 -20 -20 -17 -25 4 -5 2 -9 -2 -9 -5 0 -10 -12 -11 -26 -2
-29 50 -273 73 -342 8 -25 10 -42 4 -42 -6 0 -7 -5 -3 -11 3 -6 -7 -4 -24 5
-36 19 -101 76 -87 76 6 1 -7 10 -27 21 -21 11 -38 24 -38 29 0 6 -7 10 -16
10 -8 0 -12 5 -9 10 3 6 -2 10 -13 10 -21 0 -56 33 -45 43 3 4 -2 7 -12 7 -10
0 -16 3 -12 6 6 6 -43 50 -78 71 -11 6 -19 16 -18 21 1 6 -13 17 -32 26 -19
10 -35 21 -35 25 0 5 -9 11 -21 14 -12 3 -18 10 -14 16 3 7 -3 11 -15 11 -12
0 -18 5 -15 10 3 6 -3 10 -15 10 -12 0 -18 4 -15 10 3 6 -1 7 -9 4 -9 -3 -16
-1 -16 5 0 17 -70 14 -76 -4 -4 -8 -9 -13 -13 -10 -4 2 -9 -19 -10 -46 -2 -46
5 -63 70 -182 40 -73 79 -143 87 -157 9 -13 31 -54 51 -90 19 -36 71 -128 117
-205 45 -77 81 -141 79 -143 -6 -7 -54 22 -49 29 3 5 -2 6 -10 3 -9 -3 -16 -1
-16 5 0 6 -7 8 -15 5 -8 -4 -15 -1 -15 5 0 6 -7 8 -15 5 -8 -4 -15 -1 -15 5 0
6 -7 8 -15 5 -8 -4 -15 -1 -15 5 0 14 -122 15 -175 0 -22 -6 -53 -25 -70 -42
-26 -28 -29 -39 -29 -92 0 -41 6 -72 21 -100 22 -41 95 -116 148 -151 l29 -19
-29 -6 c-17 -4 -39 -7 -50 -8 -17 -1 -17 1 -5 10 11 7 -6 8 -57 5 -49 -4 -73
-2 -73 6 0 7 -16 9 -45 6 -29 -4 -42 -2 -38 5 4 7 -11 8 -46 4 -36 -4 -50 -3
-45 5 5 8 -14 9 -64 6 -39 -3 -69 -1 -66 3 3 5 -29 9 -71 9 -42 0 -74 -3 -71
-8 2 -4 -14 -6 -36 -4 -22 3 -38 0 -35 -5 3 -4 -13 -7 -35 -5 -24 3 -38 0 -35
-5 3 -5 -7 -7 -25 -5 -22 3 -29 1 -24 -7 6 -9 0 -10 -20 -5 -16 4 -25 3 -21
-3 4 -5 -7 -8 -26 -5 -26 3 -29 1 -17 -8 12 -9 8 -10 -19 -5 -20 5 -31 3 -28
-2 4 -6 -4 -8 -20 -5 -16 3 -24 1 -20 -5 4 -6 -4 -8 -20 -5 -17 3 -24 1 -19
-6 4 -6 -2 -8 -16 -4 -13 3 -19 1 -15 -5 5 -7 -1 -9 -15 -5 -13 3 -19 1 -15
-5 5 -7 -1 -9 -15 -5 -13 3 -19 1 -15 -5 5 -7 -1 -9 -15 -5 -15 4 -19 2 -13
-7 6 -10 2 -11 -15 -6 -14 5 -20 3 -16 -3 4 -6 -2 -8 -16 -4 -13 3 -19 1 -15
-5 5 -7 -1 -9 -15 -5 -14 3 -19 1 -14 -6 5 -8 2 -10 -8 -6 -9 3 -16 1 -16 -6
0 -6 -4 -9 -9 -5 -13 7 -62 -16 -55 -26 3 -5 -3 -6 -12 -2 -13 5 -15 3 -9 -7
5 -8 4 -11 -2 -7 -14 9 -74 -13 -67 -24 3 -5 -3 -6 -12 -2 -13 5 -15 3 -9 -7
5 -9 4 -11 -3 -6 -15 9 -134 -43 -126 -55 3 -5 -3 -6 -12 -2 -13 5 -15 3 -9
-7 5 -8 4 -11 -3 -6 -15 9 -93 -24 -85 -37 3 -5 1 -7 -5 -3 -13 8 -63 -14 -57
-24 3 -5 -2 -11 -11 -14 -8 -3 -12 -2 -9 4 3 6 -1 7 -9 4 -9 -3 -13 -11 -9
-17 3 -5 1 -7 -4 -4 -14 9 -74 -13 -67 -24 5 -9 4 -10 -35 -14 -13 -1 -27 -9
-32 -16 -5 -8 -9 -10 -9 -5 0 6 -6 2 -13 -8 -7 -9 -17 -16 -22 -15 -19 5 -55
-12 -49 -23 5 -7 1 -9 -9 -5 -9 3 -18 0 -21 -9 -3 -9 -11 -12 -16 -9 -12 7
-98 -45 -122 -73 -8 -9 -15 -34 -17 -54 -6 -81 79 -116 379 -153 236 -30 270
-31 320 -5 22 11 41 20 42 20 2 0 4 -12 5 -27 2 -37 31 -59 116 -85 65 -20
159 -28 209 -17 10 3 25 -9 40 -30 36 -54 101 -83 170 -77 l57 5 10 -52 c5
-29 19 -99 31 -157 11 -58 35 -191 54 -297 23 -128 42 -210 59 -245 60 -125
157 -178 330 -178 69 0 107 5 154 22 35 12 63 25 63 30 0 4 5 8 10 8 13 0 82
62 76 67 -2 3 4 13 15 24 11 11 17 24 14 29 -4 6 -1 10 5 10 7 0 10 7 6 15 -3
8 -1 15 5 15 6 0 9 7 6 15 -4 8 -1 17 4 21 6 3 9 15 6 25 -3 10 -1 22 5 25 5
3 7 17 4 29 -3 13 -2 26 3 29 5 4 12 -13 16 -36 25 -146 87 -243 189 -295 44
-23 67 -27 163 -31 142 -6 217 17 288 85 25 25 45 48 45 51 0 4 9 16 21 25 11
10 18 25 15 33 -3 8 -1 14 5 14 6 0 9 7 5 15 -3 8 0 15 6 15 6 0 8 11 5 30 -4
19 -2 30 5 30 6 0 8 11 5 30 -4 19 -2 30 5 30 6 0 8 11 5 30 -4 19 -2 30 4 30
7 0 9 11 7 25 -3 14 -1 25 5 25 5 0 7 13 4 30 -4 19 -2 30 4 30 7 0 9 10 5 25
-4 16 -2 25 5 25 7 0 9 11 6 30 -4 19 -2 30 5 30 6 0 8 11 5 30 -4 19 -2 30 5
30 6 0 8 11 5 30 -4 18 -2 30 4 30 7 0 8 11 4 30 -4 20 -3 30 5 30 8 0 10 9 6
24 -3 14 -1 28 5 32 6 3 9 19 5 35 -3 18 -1 29 5 29 7 0 9 11 7 25 -3 14 -1
25 4 25 5 0 9 10 8 23 -1 12 -1 36 1 52 2 17 6 -170 9 -415 5 -438 5 -446 28
-487 54 -102 130 -153 241 -160 51 -4 78 0 121 16 62 24 136 72 129 84 -2 5 4
13 14 18 9 6 15 14 12 20 -4 5 -1 9 5 9 6 0 8 4 5 10 -3 5 -1 10 5 10 6 0 9 4
5 9 -3 5 0 13 6 16 5 4 8 13 5 21 -3 8 -1 14 4 14 6 0 10 67 10 170 l0 170 94
0 c89 0 94 -1 100 -23 3 -12 6 -92 6 -177 0 -141 2 -159 24 -205 68 -147 238
-204 391 -132 63 30 118 74 109 89 -3 4 0 8 6 8 6 0 9 4 6 9 -4 5 -1 11 4 13
6 2 12 10 13 18 2 8 6 21 10 28 5 6 6 15 3 20 -2 4 -1 23 4 42 4 20 8 26 9 14
2 -48 34 -115 71 -148 53 -48 189 -111 285 -131 62 -14 109 -16 215 -12 185 7
307 43 403 119 23 18 50 38 62 44 11 6 19 16 18 22 -2 6 8 19 22 28 14 9 22
20 19 25 -3 5 0 9 6 9 6 0 9 4 6 9 -3 5 1 12 10 15 8 3 12 10 9 16 -3 5 -1 10
5 10 6 0 9 4 6 9 -4 5 -2 11 4 13 5 1 11 13 13 25 2 12 6 25 9 29 4 3 4 13 1
22 -13 37 8 2 48 -78 32 -64 61 -103 118 -160 82 -83 145 -119 250 -146 130
-33 361 -2 423 56 12 11 26 20 30 20 5 0 14 4 21 10 7 5 27 21 45 36 17 14 32
31 32 38 0 6 11 20 25 30 14 10 25 25 25 32 0 8 5 14 11 14 5 0 8 4 5 9 -3 5
1 12 10 15 8 3 12 10 9 16 -3 5 -2 10 3 10 12 0 44 69 37 81 -4 5 -1 9 5 9 6
0 9 4 6 9 -4 5 -2 11 3 13 6 1 11 14 13 28 2 14 7 30 11 37 4 6 4 18 1 27 -4
9 -1 16 6 16 8 0 10 9 6 25 -4 15 -2 25 5 25 7 0 8 11 4 29 -3 16 -2 32 3 35
5 3 12 -46 15 -112 10 -191 55 -313 149 -403 89 -85 190 -119 357 -119 103 0
221 22 221 41 0 5 6 9 13 9 15 0 55 40 41 40 -5 0 0 7 11 16 11 8 21 19 21 24
1 6 2 13 3 16 0 4 19 -12 41 -34 63 -65 111 -86 205 -86 69 -1 88 3 140 28 59
29 129 92 119 108 -3 4 0 8 6 8 6 0 8 4 5 10 -3 5 -2 10 4 10 6 0 8 7 5 15 -4
8 -1 15 5 15 6 0 8 11 5 30 -4 20 -2 30 5 30 9 0 11 68 9 259 -3 253 -2 260
17 265 11 3 22 7 25 8 3 2 7 -132 10 -297 6 -342 6 -345 96 -424 108 -95 285
-94 388 3 42 40 88 106 85 123 -1 4 -1 13 0 18 1 6 2 155 2 333 0 208 4 322
10 322 19 0 124 55 149 77 14 13 30 23 36 23 7 0 19 11 28 25 9 14 22 25 29
25 8 0 24 11 37 25 13 14 20 25 16 25 -5 0 11 18 34 41 23 22 39 43 36 46 -2
3 4 14 15 26 10 11 19 31 19 44 0 13 5 23 11 23 6 0 9 7 5 15 -3 8 0 15 5 15
6 0 9 9 6 20 -3 11 -1 20 4 20 5 0 9 16 9 35 0 19 -3 35 -7 35 -5 0 -9 12 -9
26 -1 16 -16 37 -40 58 l-38 33 37 14 c20 7 37 17 37 21 0 4 5 8 11 8 14 0 40
26 32 34 -3 3 2 8 11 12 9 3 13 10 10 15 -3 5 0 9 7 9 7 0 9 3 6 7 -4 3 -2 12
4 20 6 7 8 13 3 13 -5 0 -4 4 2 8 15 10 56 121 49 133 -4 5 -1 9 5 9 7 0 10 6
7 14 -3 8 -1 16 4 18 5 2 11 16 13 31 1 15 6 30 9 34 12 11 8 113 -4 113 -6 0
-9 6 -6 14 3 7 0 19 -6 25 -6 6 -7 11 -3 11 5 0 -3 11 -17 24 -14 13 -23 27
-19 32 4 4 1 4 -5 0 -7 -4 -21 -3 -30 3 -16 8 -15 10 9 16 15 4 29 13 32 21 3
8 12 14 20 14 8 0 35 23 60 51 38 42 44 55 39 80 -3 18 -1 29 5 29 7 0 9 17 5
49 -3 31 -1 51 6 55 14 9 15 172 1 181 -6 3 -8 19 -5 35 3 16 0 32 -6 35 -6 4
-7 19 -4 36 4 19 3 29 -5 29 -7 0 -9 8 -5 19 4 14 -4 29 -29 52 -20 17 -33 36
-30 40 3 5 -4 9 -16 9 -13 0 -19 4 -14 12 4 6 3 8 -4 5 -14 -9 -43 3 -36 14 3
5 -10 6 -28 4 -26 -4 -29 -3 -13 4 17 8 15 10 -15 10 -27 1 -32 -2 -20 -10 11
-7 4 -8 -24 -3 -27 5 -37 3 -32 -4 4 -7 -5 -9 -30 -5 -24 4 -35 3 -31 -4 4 -6
-4 -8 -20 -5 -18 3 -24 1 -19 -7 6 -8 0 -10 -18 -5 -15 3 -26 2 -26 -4 0 -5
-11 -7 -25 -4 -15 2 -25 0 -25 -7 0 -7 -5 -9 -11 -6 -15 10 -61 -4 -54 -15 3
-5 0 -7 -8 -4 -8 3 -30 -4 -48 -15 -19 -12 -29 -21 -24 -21 6 0 2 -5 -8 -11
-9 -6 -15 -14 -12 -20 4 -5 2 -9 -4 -9 -8 0 -20 -23 -27 -52 -1 -5 -2 -9 -4
-10 -1 -2 -3 -12 -5 -23 -2 -11 -7 -35 -10 -54 l-6 -33 -22 43 c-11 24 -25 46
-29 47 -5 2 -6 8 -2 13 3 5 0 9 -5 9 -6 0 -11 6 -11 14 0 8 -13 23 -29 32 -17
10 -28 21 -25 26 3 4 -3 5 -12 1 -12 -4 -15 -3 -10 5 5 8 -3 12 -23 12 -17 0
-31 -4 -31 -10 0 -5 -7 -6 -17 -3 -12 5 -14 3 -8 -7 5 -8 4 -11 -2 -7 -10 7
-121 -35 -132 -49 -3 -5 -12 -10 -20 -12 -36 -8 -123 -80 -114 -95 3 -6 1 -7
-4 -4 -6 4 -19 -3 -29 -15 -12 -14 -14 -18 -4 -13 13 7 13 6 2 -7 -12 -15 -19
-63 -21 -145 -1 -32 -21 -48 -21 -18 0 9 -7 18 -15 21 -8 4 -15 12 -15 19 0 7
-16 23 -35 36 -19 13 -35 27 -35 31 0 4 -7 4 -17 1 -10 -4 -14 -2 -10 4 5 8
-7 10 -35 7 -36 -3 -39 -2 -18 6 23 9 22 9 -8 5 -23 -3 -49 -20 -80 -52 -26
-25 -47 -51 -47 -56 0 -5 -9 -15 -20 -23 -11 -8 -20 -18 -20 -22 0 -4 -10 -18
-23 -32 -12 -13 -22 -27 -22 -31 0 -4 -10 -11 -22 -14 -60 -17 -61 -17 -53 -4
6 9 2 11 -14 6 -33 -8 -53 2 -46 24 4 11 2 19 -5 19 -6 0 -9 4 -5 9 3 5 -1 16
-9 24 -8 8 -13 17 -10 20 3 3 -4 10 -15 17 -12 6 -19 15 -17 19 3 4 -6 13 -20
20 -14 6 -23 15 -20 20 3 5 -8 11 -25 15 -20 4 -28 10 -23 17 4 7 3 9 -4 6
-14 -10 -43 3 -36 15 4 6 -2 7 -16 3 -17 -5 -20 -4 -15 5 6 10 1 11 -19 6 -15
-4 -25 -3 -22 2 2 4 -47 6 -111 4 -79 -3 -114 -1 -109 6 4 6 -2 8 -16 5 l-23
-6 20 21 c34 36 50 56 50 65 0 4 6 11 13 16 7 4 14 18 15 29 1 12 5 22 10 22
5 0 7 28 5 61 -3 43 -10 65 -22 74 -9 7 -16 17 -14 22 1 4 -12 15 -30 23 -18
9 -29 19 -25 23 4 5 -13 6 -37 3 -34 -4 -39 -3 -20 3 19 7 10 9 -40 9 -49 0
-59 -2 -40 -9 17 -5 8 -6 -29 -3 -33 4 -51 3 -48 -3 4 -6 -4 -8 -20 -5 -17 3
-24 1 -19 -6 4 -6 -2 -8 -16 -4 -14 3 -19 1 -14 -6 4 -8 2 -10 -7 -6 -8 3 -21
-1 -28 -9 -8 -7 -20 -12 -28 -9 -8 3 -11 0 -8 -5 3 -5 0 -10 -8 -10 -11 0 -15
12 -15 43 0 24 -4 45 -9 49 -5 3 -7 21 -4 40 3 20 1 35 -4 35 -5 0 -8 14 -5
30 2 18 0 30 -7 30 -6 0 -8 7 -5 15 4 8 3 23 -1 32 -5 10 -9 23 -10 28 -1 6
-3 15 -5 20 -1 6 -1 20 0 33 1 12 -3 22 -9 22 -6 0 -8 7 -5 15 4 8 1 15 -5 15
-6 0 -8 6 -5 14 3 7 -1 20 -9 27 -7 8 -12 20 -9 27 2 6 0 12 -5 12 -5 0 -10
10 -10 22 -1 13 -7 24 -13 26 -5 2 -8 8 -4 13 3 5 1 9 -5 9 -6 0 -8 7 -5 15 4
8 1 15 -5 15 -6 0 -10 3 -9 7 4 13 -24 73 -34 73 -5 0 -6 5 -3 10 3 6 -1 13
-9 16 -9 3 -14 10 -11 14 3 5 -3 13 -12 19 -10 6 -14 11 -9 11 12 0 -100 110
-113 110 -6 0 -11 5 -11 10 0 6 -7 10 -15 10 -8 0 -15 4 -15 9 0 5 -14 14 -31
20 -40 14 -183 15 -174 1 4 -6 -6 -7 -26 -3 -23 4 -30 3 -25 -5 5 -8 2 -10 -8
-6 -9 3 -16 1 -16 -5 0 -6 -7 -8 -17 -4 -12 5 -14 3 -8 -7 5 -9 4 -11 -3 -6
-18 11 -189 -87 -200 -116 -10 -23 -19 -3 -15 31 3 22 1 41 -5 45 -6 4 -8 21
-5 41 3 20 1 35 -4 35 -6 0 -10 12 -10 28 0 50 -16 192 -22 192 -8 0 -4 150 4
173 4 9 5 29 3 42 -3 14 -1 25 4 25 5 0 8 10 7 23 -1 12 1 30 5 39 4 9 5 22 1
28 -3 5 -1 10 5 10 7 0 10 7 6 15 -3 8 -1 15 5 15 6 0 9 7 5 15 -5 15 50 65
73 65 6 0 14 7 17 15 4 8 11 15 17 15 11 0 137 120 137 131 0 3 18 25 40 49
22 23 42 52 46 62 3 11 15 29 25 39 11 11 17 24 14 29 -4 6 -1 10 5 10 6 0 8
5 5 10 -3 6 -1 10 5 10 6 0 9 4 6 9 -4 5 -2 11 3 13 5 1 11 10 13 18 2 8 11
23 21 34 10 11 15 26 13 33 -3 7 -2 13 3 13 8 0 28 41 33 70 2 8 7 18 11 21 5
4 10 18 10 33 1 14 6 26 11 26 4 0 6 7 2 15 -3 8 -1 15 3 15 11 0 43 89 36
100 -3 5 -1 10 4 12 5 1 11 17 13 33 2 17 7 33 11 36 5 3 9 22 10 42 1 20 6
37 11 37 4 0 6 7 3 15 -4 8 -2 17 4 21 6 3 8 12 5 19 -3 8 0 15 6 17 6 2 11
18 12 36 1 23 6 32 18 32 22 0 92 66 83 80 -3 5 -2 10 3 10 12 0 82 136 75
144 -4 3 -1 6 6 6 7 0 9 5 6 10 -3 6 -2 10 3 10 13 0 53 81 46 92 -3 4 -1 8 5
8 9 0 17 17 23 45 1 6 8 16 15 24 8 7 12 20 9 27 -3 8 -1 14 5 14 6 0 7 5 4
10 -3 6 -1 10 5 10 6 0 8 5 5 10 -3 6 -1 10 4 10 6 0 11 10 12 23 0 15 2 17 6
7 3 -8 9 -17 12 -20 3 -3 26 -34 50 -70 25 -36 61 -85 81 -110 20 -25 53 -70
73 -100 65 -97 101 -146 164 -227 34 -43 86 -109 114 -148 29 -38 73 -95 99
-125 26 -30 77 -98 115 -150 124 -172 180 -220 256 -220 30 0 64 8 89 21 42
22 73 56 64 71 -3 4 0 8 6 8 6 0 9 4 5 9 -3 5 -1 12 5 16 24 15 -4 195 -31
195 -5 0 -9 7 -9 15 0 8 -9 19 -20 25 -11 6 -20 17 -20 25 0 8 -11 22 -25 31
-14 9 -22 20 -20 25 3 4 -6 16 -20 25 -14 9 -25 22 -25 29 0 7 -11 24 -24 38
-13 14 -22 28 -19 30 2 3 -7 14 -21 25 -14 10 -23 22 -19 25 3 4 -2 9 -11 13
-9 3 -16 12 -16 20 0 7 -9 18 -20 24 -11 6 -18 15 -15 20 3 4 -6 17 -20 28
-14 11 -25 25 -25 31 0 7 -7 14 -15 17 -8 4 -15 13 -15 20 0 8 -7 17 -15 20
-8 4 -13 10 -10 15 3 4 -4 13 -16 19 -11 7 -18 14 -15 17 7 7 -54 93 -66 93
-5 0 -6 5 -3 10 3 6 -1 13 -9 16 -9 3 -16 12 -16 19 0 7 -7 16 -16 19 -8 3
-13 10 -10 15 3 5 -7 21 -21 37 -15 16 -27 32 -25 36 1 4 -7 12 -18 18 -11 6
-18 15 -15 20 3 6 -5 21 -19 35 -14 14 -22 25 -18 25 4 0 -1 5 -11 11 -9 6
-15 14 -12 19 3 4 -2 11 -11 14 -8 3 -13 10 -9 16 3 5 -3 18 -15 30 -11 11
-20 25 -20 30 0 6 -5 10 -11 10 -5 0 -8 4 -5 8 3 5 -5 20 -17 33 -12 13 -22
27 -22 31 0 4 -7 16 -15 26 -8 10 -24 35 -35 56 -11 21 -25 41 -32 43 -7 3
-10 9 -8 14 3 4 -3 17 -15 29 -11 11 -17 20 -12 20 4 0 -1 5 -11 11 -9 6 -15
14 -12 20 4 5 1 9 -5 9 -6 0 -8 5 -5 10 3 6 0 10 -7 10 -8 0 -7 4 4 11 12 6
16 19 13 39 -2 16 1 33 6 36 6 3 8 12 5 20 -3 8 -2 14 3 14 9 0 36 77 34 98 0
6 3 12 7 12 10 0 31 60 25 70 -3 5 0 10 6 12 6 2 12 23 13 46 0 23 5 42 9 42
5 0 7 9 4 20 -3 11 -1 20 5 20 6 0 7 11 4 25 -4 15 -2 25 5 25 7 0 10 18 7 50
-1 28 0 50 5 50 4 0 7 36 7 80 0 44 -4 80 -9 80 -5 0 -7 18 -4 40 4 24 2 40
-5 40 -5 0 -8 8 -5 18 2 10 -1 31 -8 47 -7 17 -14 39 -16 50 -2 11 -8 22 -13
23 -6 2 -10 10 -10 18 0 8 -5 14 -11 14 -5 0 -8 4 -4 9 3 6 -4 15 -15 21 -11
6 -18 15 -15 20 3 5 -4 14 -15 20 -11 6 -18 15 -15 20 3 5 -4 14 -15 20 -11 6
-20 15 -20 21 0 14 -26 39 -40 39 -6 0 -9 4 -6 9 3 5 -13 18 -37 30 -23 12
-37 21 -32 21 6 1 -12 12 -38 26 -26 14 -53 22 -59 18 -6 -4 -8 -3 -4 4 6 11
-47 28 -73 23 -7 -1 -10 2 -7 7 3 5 -20 14 -51 21 -67 13 -186 15 -179 2 4 -5
-3 -7 -14 -4 -24 6 -110 -16 -110 -28 0 -5 -7 -5 -17 -2 -11 4 -14 3 -9 -5 4
-8 2 -10 -7 -6 -8 3 -21 -1 -28 -9 -8 -7 -19 -12 -26 -10 -6 2 -21 -5 -33 -17
-16 -16 -25 -19 -33 -11 -6 6 -7 11 -2 11 4 0 -2 9 -15 20 -13 11 -19 20 -14
20 5 1 0 9 -11 18 -11 10 -21 24 -23 32 -2 8 -10 20 -17 26 -8 6 -12 14 -8 17
3 4 1 7 -5 7 -6 0 -9 7 -6 15 4 8 1 15 -5 15 -6 0 -8 7 -5 15 4 8 1 15 -6 15
-6 0 -8 5 -5 10 3 6 1 10 -5 10 -6 0 -8 5 -5 10 3 6 2 10 -4 10 -6 0 -8 6 -5
13 3 8 -1 27 -7 43 -7 16 -11 37 -10 47 1 9 -1 17 -6 17 -7 0 -9 73 -2 90 1 3
1 8 0 13 0 4 3 7 7 7 11 0 36 49 37 70 1 34 166 88 228 75 96 -21 200 -103
248 -196 10 -21 42 -65 70 -99 66 -80 119 -105 198 -96 30 4 58 10 61 15 3 4
13 11 23 14 11 4 21 16 24 27 3 11 9 20 13 20 10 0 31 50 25 61 -4 5 -1 9 4 9
6 0 11 18 11 40 0 22 -4 40 -9 40 -5 0 -7 9 -4 20 3 11 1 20 -3 20 -5 0 -10
12 -11 27 0 15 -6 29 -12 31 -5 2 -7 10 -4 18 3 8 0 14 -6 14 -6 0 -8 6 -5 13
6 16 -59 125 -89 151 -12 10 -22 23 -22 29 0 6 -11 17 -25 24 -14 7 -20 13
-15 13 6 0 -1 7 -15 15 -14 7 -23 17 -21 22 2 4 -6 12 -18 18 -11 5 -21 13
-21 17 0 5 -7 8 -16 8 -8 0 -12 5 -9 10 3 6 -1 10 -9 10 -24 0 -66 22 -60 31
3 5 -1 6 -9 3 -8 -3 -21 1 -28 9 -8 7 -20 12 -28 9 -9 -3 -11 0 -6 8 6 10 2
11 -19 6 -14 -3 -26 -2 -26 3 0 17 -99 31 -216 31 -63 0 -113 -4 -110 -8z m85
-109 c17 -15 23 -33 28 -99 l6 -80 -79 -17 c-87 -19 -138 -42 -198 -91 l-40
-32 -95 29 c-53 17 -98 32 -100 33 -9 7 30 71 61 100 73 68 149 108 283 148
100 29 108 30 134 9z m524 -216 c63 -83 115 -228 103 -290 -8 -44 -47 -77 -92
-77 -42 0 -104 61 -170 166 l-47 76 18 121 c10 67 20 127 22 134 6 15 130 -83
166 -130z m-887 -389 c59 -11 65 -14 73 -42 5 -17 21 -59 34 -93 l25 -63 -41
-63 c-23 -35 -56 -87 -73 -116 l-31 -53 -46 89 c-46 89 -89 218 -102 306 l-7
47 52 0 c29 0 81 -5 116 -12z m799 -385 c81 -27 108 -54 174 -172 70 -124 88
-181 97 -302 9 -121 -21 -341 -61 -441 -13 -32 -11 -34 -113 132 -19 30 -37
57 -41 60 -19 14 -180 243 -257 367 -49 77 -113 175 -142 218 -28 42 -49 81
-46 86 3 6 31 22 62 36 96 44 223 50 327 16z m-359 -289 l117 -176 -17 -36
c-25 -52 -106 -182 -114 -182 -4 0 -20 21 -36 46 -16 25 -44 64 -63 86 -18 22
-52 73 -75 112 -23 39 -51 81 -62 94 -20 22 -20 23 -2 55 29 50 120 177 128
177 3 0 59 -79 124 -176z m-227 -266 c23 -35 63 -92 89 -128 26 -36 72 -102
104 -145 31 -44 72 -96 91 -115 51 -53 104 -130 202 -295 49 -82 94 -156 101
-163 13 -15 -1 -70 -48 -187 -27 -70 -110 -225 -120 -225 -4 0 -10 26 -13 58
-10 87 -35 203 -50 232 -7 14 -25 61 -40 105 -26 76 -87 207 -133 285 -11 19
-33 58 -48 85 -33 63 -119 192 -149 225 -12 14 -36 46 -54 71 -28 40 -31 50
-22 68 7 11 19 59 27 106 9 47 17 85 19 85 2 0 21 -28 44 -62z m675 -391 c74
-111 138 -210 141 -219 7 -17 -99 -238 -113 -238 -5 0 -45 63 -90 140 -45 77
-106 177 -137 223 -30 47 -55 89 -55 94 0 19 105 203 115 203 2 0 64 -91 139
-203z m469 -726 c59 -86 123 -180 143 -208 l36 -52 -19 -43 c-11 -24 -28 -67
-37 -95 -10 -29 -21 -55 -26 -58 -10 -6 -54 48 -181 225 -58 80 -115 159 -127
175 l-23 31 21 39 c11 22 34 72 51 110 27 62 32 68 42 51 7 -10 60 -89 120
-175z m472 -651 c43 -58 88 -116 101 -130 29 -32 84 -143 84 -171 0 -28 -26
-75 -45 -83 -9 -3 -25 -6 -36 -6 -25 0 -102 70 -142 130 -17 25 -57 80 -88
122 -46 61 -55 79 -44 88 12 10 34 59 65 144 6 16 14 25 19 20 4 -5 43 -56 86
-114z m-1769 -2571 c95 -17 150 -45 172 -87 10 -21 26 -51 36 -68 21 -41 28
-122 13 -171 -14 -48 -62 -123 -127 -197 -51 -59 -60 -88 -39 -128 19 -36 70
-48 197 -48 113 0 120 -1 164 -29 119 -76 182 -250 148 -411 -14 -64 -23 -78
-43 -63 -83 63 -313 87 -454 47 -22 -6 -23 -4 -23 58 0 72 -31 212 -60 268
-24 47 -97 114 -142 130 -34 13 -35 14 -26 47 12 45 -6 137 -39 186 -28 44
-99 82 -173 92 -100 14 -243 -63 -295 -158 l-19 -35 -31 24 c-139 106 -306
105 -426 -3 -83 -75 -104 -179 -54 -276 l27 -54 -22 -40 c-12 -23 -26 -71 -32
-108 -9 -56 -15 -68 -35 -76 -38 -14 -47 -11 -62 22 -7 17 -29 51 -47 75 -24
31 -34 55 -34 80 0 50 -11 66 -82 117 -100 71 -154 134 -167 196 -17 80 -14
102 27 171 54 93 140 176 220 212 61 28 73 30 152 26 110 -6 185 -34 330 -120
63 -37 122 -68 132 -68 10 0 18 -5 18 -12 0 -21 33 -48 60 -48 29 0 54 24 90
85 130 225 254 319 475 360 90 17 100 17 171 4z m3358 -27 c41 -46 45 -353 5
-419 -21 -34 -82 -76 -172 -119 -65 -30 -90 -59 -86 -101 6 -52 52 -87 144
-108 l50 -12 -2 -44 c-1 -24 -9 -60 -17 -79 -7 -19 -26 -69 -41 -110 -15 -41
-34 -83 -43 -92 -22 -26 -88 -47 -182 -57 -73 -8 -88 -13 -107 -36 -27 -31
-28 -46 -7 -86 17 -33 100 -79 185 -100 26 -7 50 -18 53 -26 17 -42 -76 -184
-173 -264 -47 -38 -129 -89 -144 -89 -2 0 -14 27 -26 60 -54 147 -178 238
-353 257 -55 6 -56 6 -39 25 10 10 24 38 31 61 10 35 56 127 105 209 6 9 26
45 46 80 37 65 68 103 156 195 55 57 73 105 54 141 -13 25 -44 36 -75 28 -35
-9 -127 -107 -274 -293 -62 -79 -108 -132 -115 -132 -4 -1 -11 10 -16 22 -19
49 -121 127 -166 127 -19 0 -26 17 -59 137 -41 150 -60 195 -107 248 l-31 35
33 39 c19 21 51 59 72 85 21 25 42 46 47 46 11 0 83 -116 125 -201 19 -39 39
-77 45 -84 27 -33 108 -18 125 22 4 10 12 99 17 198 l10 180 41 39 c38 34 151
96 178 96 11 0 57 -98 84 -180 23 -72 49 -100 92 -100 23 0 41 7 54 23 27 30
95 183 103 232 17 98 24 104 196 140 133 29 163 30 184 7z m-6410 -241 c76
-71 154 -195 206 -331 36 -92 58 -120 98 -120 28 0 62 25 62 47 0 21 18 15 26
-9 18 -58 145 -322 178 -371 35 -52 69 -118 62 -124 -3 -3 -19 0 -37 6 -18 6
-64 11 -103 11 -107 0 -186 -44 -248 -138 -24 -35 -30 -14 -33 115 l-2 116
-57 111 c-31 61 -56 118 -56 127 0 9 -18 51 -39 95 -64 130 -99 224 -121 321
-38 176 -19 221 64 144z m1276 -100 c-17 -27 -36 -71 -42 -99 -11 -44 -14 -49
-33 -41 -11 4 -68 18 -127 30 -60 12 -108 24 -108 28 1 13 78 58 150 88 99 41
98 41 147 42 l43 1 -30 -49z m-582 -148 c12 -3 22 -8 22 -12 0 -4 21 -13 48
-20 26 -7 67 -20 92 -28 25 -8 102 -27 171 -43 154 -34 193 -52 230 -104 58
-83 85 -114 137 -151 28 -21 52 -41 52 -44 0 -4 -35 -12 -77 -19 -43 -7 -100
-23 -127 -36 l-49 -25 -20 25 c-54 69 -164 105 -256 84 -60 -13 -98 -36 -160
-93 l-38 -35 -46 76 c-25 43 -50 88 -56 102 -5 14 -26 61 -46 105 -46 98 -113
273 -115 301 0 1 48 -16 108 -38 59 -22 117 -42 130 -45z m1977 -4 c35 -9 46
-17 54 -42 16 -45 14 -59 -19 -99 -41 -50 -47 -86 -20 -121 17 -21 30 -27 59
-27 60 0 123 -27 153 -66 22 -29 28 -50 33 -120 12 -142 -18 -185 -145 -202
-74 -11 -110 -41 -110 -95 -1 -18 -6 -45 -13 -60 l-12 -28 -53 60 c-32 37 -81
77 -125 103 -40 23 -73 43 -75 44 -2 1 5 22 15 45 l19 43 34 -49 c19 -28 41
-55 49 -62 25 -19 69 -16 81 6 16 30 13 43 -24 103 l-33 56 79 4 c65 3 82 7
94 23 19 25 18 38 -5 66 -16 20 -30 24 -95 27 -42 2 -76 7 -76 11 0 3 10 24
22 47 25 49 20 86 -17 102 -43 20 -73 0 -103 -68 -16 -36 -32 -58 -39 -56 -6
3 -43 28 -81 55 -99 72 -158 68 -150 -11 2 -27 12 -39 55 -68 29 -19 52 -38
53 -42 0 -3 -23 -14 -50 -23 -56 -19 -86 -52 -75 -85 12 -36 46 -45 105 -25
28 9 53 15 56 12 3 -2 -3 -23 -12 -46 -14 -35 -20 -41 -38 -35 -11 4 -76 7
-142 7 l-121 1 -17 45 c-22 63 -21 77 15 133 38 59 35 88 -16 158 -60 81 -42
147 50 186 46 19 81 17 135 -7 59 -26 77 -44 106 -102 29 -56 62 -74 102 -55
19 9 41 40 73 106 53 107 70 128 125 147 48 17 46 17 99 4z m-3192 -101 c42
-21 77 -41 77 -46 0 -8 -37 -45 -87 -86 -22 -18 -23 -18 -59 3 -99 58 -172
143 -142 163 29 20 132 3 211 -34z m4502 11 c28 -7 62 -18 76 -25 33 -16 89
-80 89 -100 0 -9 13 -29 29 -45 43 -42 86 -40 148 9 87 69 236 162 271 168 54
10 194 -2 240 -21 52 -21 113 -95 142 -173 34 -90 60 -200 54 -230 -5 -26 -9
-27 -62 -27 -46 0 -64 5 -92 26 -52 38 -145 63 -195 51 -22 -5 -47 -12 -55
-16 -10 -4 -23 6 -38 30 -13 19 -39 42 -57 50 -36 15 -151 18 -195 5 -16 -5
-36 -2 -55 7 -16 9 -55 16 -87 16 -77 1 -131 -36 -173 -119 -36 -72 -47 -196
-22 -254 14 -32 13 -36 -16 -85 -17 -28 -33 -53 -34 -55 -2 -3 -47 39 -101 92
l-97 97 9 101 c9 90 7 110 -13 194 -12 52 -31 111 -42 131 -10 21 -18 38 -16
39 1 1 20 14 42 27 22 14 69 48 104 77 37 29 71 49 80 47 9 -3 39 -10 66 -17z
m-4232 -172 c29 -19 77 -49 107 -67 112 -67 122 -76 155 -126 42 -65 75 -140
75 -171 0 -21 -3 -23 -22 -17 -44 14 -146 6 -192 -15 -119 -52 -168 -126 -193
-290 -9 -62 -20 -106 -24 -99 -4 7 -19 61 -33 121 -28 119 -41 147 -83 193
-40 43 -81 70 -131 84 -42 13 -42 14 -36 49 10 55 42 111 70 121 16 6 27 20
30 39 4 17 27 49 58 78 66 64 149 133 159 133 5 0 32 -15 60 -33z m-883 -177
c200 -17 392 -38 397 -43 3 -3 0 -20 -6 -39 -5 -18 -14 -53 -18 -78 l-8 -45
-150 -6 c-273 -12 -298 -12 -355 6 -92 27 -199 8 -266 -48 -22 -18 -44 -27
-67 -27 -24 0 -46 -8 -64 -24 -28 -24 -28 -25 -28 -148 0 -119 -1 -124 -20
-120 -12 2 -42 -11 -70 -31 -88 -60 -108 -67 -150 -56 -41 12 -42 5 15 70 8
10 31 43 49 74 55 90 39 165 -33 165 -40 0 -161 -68 -244 -138 -111 -92 -95
-90 -367 -56 -146 17 -171 23 -159 33 28 26 654 321 776 367 181 67 319 104
518 139 95 16 110 17 250 5z m5338 -80 c14 -13 22 -33 22 -53 0 -52 11 -78 36
-88 39 -14 73 8 85 57 33 131 161 118 161 -16 0 -65 30 -107 69 -97 25 6 35
21 59 85 16 42 51 59 136 68 l69 7 -52 -49 c-64 -61 -92 -120 -93 -196 0 -49
-4 -62 -30 -92 -39 -44 -105 -75 -147 -69 -30 5 -33 9 -39 52 -8 58 -34 110
-76 151 -50 51 -101 70 -190 70 l-76 0 -6 38 c-6 35 -1 65 23 125 13 32 20 33
49 7z m1026 -100 c69 -61 114 -251 73 -313 -10 -15 -21 -27 -26 -27 -5 0 -11
51 -13 113 -5 120 -19 163 -72 219 -14 15 -26 30 -26 33 0 15 33 2 64 -25z
m-163 -63 c19 -12 44 -42 57 -67 19 -38 22 -59 21 -155 0 -60 -4 -147 -7 -192
-4 -46 -4 -83 0 -83 4 0 28 15 52 33 72 56 164 87 254 87 180 0 276 -84 317
-275 20 -98 22 -660 1 -708 -53 -124 -241 -126 -300 -3 -14 29 -16 76 -16 313
0 164 -4 294 -11 316 -26 95 -154 103 -252 17 l-37 -32 0 -277 c0 -152 -4
-292 -10 -310 -12 -44 -64 -97 -108 -112 -47 -15 -116 -3 -152 28 -62 52 -60
23 -60 710 0 609 1 629 20 661 30 49 75 72 141 72 42 0 65 -6 90 -23z m-2748
-79 c78 -25 92 -33 146 -76 87 -70 129 -178 119 -305 -9 -107 -64 -190 -168
-249 -22 -13 -40 -25 -40 -28 0 -3 29 -20 65 -39 126 -65 189 -167 187 -306
-1 -187 -132 -330 -348 -381 -97 -23 -293 -15 -384 16 -85 28 -168 78 -186
112 -29 55 -10 136 41 176 40 32 95 29 174 -10 56 -27 79 -33 156 -36 80 -3
95 -1 135 20 53 28 80 74 80 137 0 93 -65 152 -181 167 -139 16 -205 101 -149
191 23 38 55 55 132 72 110 24 166 91 156 186 -12 106 -116 151 -243 105 -33
-12 -76 -26 -95 -32 -108 -33 -208 66 -166 165 22 54 147 117 271 137 75 13
227 2 298 -22z m1050 22 c195 -32 336 -191 391 -442 16 -74 25 -271 16 -378
-18 -214 -70 -356 -174 -467 -83 -90 -157 -124 -279 -131 -283 -14 -462 176
-506 538 -22 171 -7 402 33 531 78 253 280 389 519 349z m-4622 -49 c26 -16
52 -43 61 -62 17 -36 76 -430 124 -829 9 -74 17 -136 19 -138 4 -4 11 34 55
268 17 91 44 221 60 290 16 69 41 181 56 250 33 154 50 191 109 226 39 22 54
26 101 22 87 -7 136 -55 160 -154 89 -373 129 -560 169 -792 10 -57 22 -98 25
-90 4 7 17 94 29 193 48 394 94 701 111 741 39 91 160 134 235 83 40 -28 60
-68 57 -118 -1 -20 -23 -152 -47 -293 -25 -142 -65 -376 -90 -520 -25 -145
-48 -276 -51 -291 -9 -42 -81 -113 -129 -126 -51 -14 -159 -14 -208 0 -49 13
-99 58 -120 106 -17 39 -88 374 -137 643 -15 85 -30 148 -33 140 -3 -8 -11
-49 -17 -90 -7 -41 -27 -154 -46 -250 -19 -96 -46 -233 -59 -305 -29 -148 -54
-195 -120 -229 -49 -25 -170 -34 -235 -16 -55 15 -111 70 -127 126 -12 39
-141 736 -194 1046 -16 89 -7 129 37 167 31 28 42 31 97 31 52 0 71 -5 108
-29z m1840 6 c18 -12 44 -40 56 -62 21 -38 23 -51 23 -237 l0 -198 224 0 225
0 3 213 c3 192 5 214 22 238 37 47 68 63 131 67 50 3 66 0 94 -20 19 -12 44
-36 55 -51 21 -28 21 -36 21 -610 0 -566 -1 -583 -20 -617 -24 -40 -93 -80
-141 -80 -49 0 -100 26 -131 67 l-28 36 -5 231 -5 231 -222 3 -222 2 -3 -227
c-3 -200 -5 -232 -21 -258 -45 -74 -143 -103 -219 -66 -24 11 -54 37 -68 58
l-25 37 0 580 0 581 24 33 c36 51 77 72 142 72 42 0 65 -6 90 -23z m-1536 -14
c-4 -10 -16 -49 -27 -87 -21 -78 -34 -106 -48 -106 -6 0 -10 2 -10 4 0 21 -31
160 -39 174 -15 28 -6 32 67 32 57 0 63 -2 57 -17z m5244 -27 c50 -26 65 -62
69 -163 l4 -93 65 0 c116 0 173 -43 173 -131 0 -42 -5 -55 -34 -87 -34 -36
-36 -37 -120 -41 l-86 -3 0 -230 c0 -296 4 -306 135 -337 80 -19 115 -58 115
-128 0 -49 -31 -100 -67 -110 -15 -5 -82 -8 -148 -8 -104 1 -127 4 -172 24
-68 30 -134 101 -164 177 -22 56 -23 73 -26 314 -2 140 -6 265 -8 278 -4 15
-13 22 -28 22 -36 0 -87 38 -103 77 -32 76 17 158 107 178 l44 10 11 81 c14
95 32 134 76 163 39 25 115 28 157 7z m-2175 -292 c43 -16 0 -60 -72 -74 -78
-14 -113 -33 -159 -82 -109 -119 -72 -306 76 -383 15 -7 62 -18 106 -24 86
-12 105 -22 105 -56 0 -48 -103 -48 -210 0 -141 64 -266 42 -339 -60 -17 -24
-37 -67 -45 -97 -14 -49 -15 -33 -15 237 l0 290 53 42 c64 51 173 108 241 125
28 7 52 15 55 18 7 8 163 69 177 70 6 0 18 -3 27 -6z m2570 -276 c-1 -13 -3
-125 -3 -251 l-1 -227 -40 29 c-22 16 -67 37 -100 47 l-60 18 2 155 3 155 38
8 c48 10 107 40 131 67 25 27 33 27 30 -1z"/>
<path d="M6156 1329 c-72 -63 -103 -230 -92 -494 11 -276 60 -387 171 -387 57
0 90 24 121 85 40 78 54 178 54 378 0 326 -48 449 -177 449 -33 0 -50 -7 -77
-31z m117 -164 c8 -26 12 -114 12 -255 0 -179 -3 -225 -18 -273 -20 -66 -36
-70 -55 -12 -43 129 -38 470 8 591 11 28 12 28 26 9 8 -11 20 -38 27 -60z"/>
<path d="M3555 5800 c-26 -28 -24 -98 4 -180 13 -36 26 -67 31 -70 4 -3 15
-21 25 -40 10 -19 39 -56 64 -83 25 -27 48 -53 49 -58 2 -5 8 -9 14 -9 6 0 26
-11 44 -25 18 -14 37 -25 43 -25 6 0 11 -4 11 -8 0 -5 64 -41 143 -80 276
-139 519 -190 846 -178 91 3 178 10 195 15 17 6 73 17 124 26 114 20 192 43
192 55 0 6 6 10 13 10 11 0 77 65 77 75 0 9 -78 25 -117 25 -23 0 -111 -14
-195 -31 -258 -51 -527 -57 -683 -13 -33 9 -73 18 -90 21 -16 2 -39 8 -50 13
-11 5 -38 14 -60 21 -77 23 -255 106 -255 119 0 6 -8 10 -19 10 -10 0 -24 7
-31 15 -7 8 -18 15 -24 15 -6 0 -23 11 -38 25 -15 14 -29 25 -32 25 -3 0 -25
20 -48 44 -54 54 -82 110 -104 201 -18 76 -41 104 -85 105 -14 0 -34 -9 -44
-20z"/>
</g>
</svg>
